<svg width="131" height="32" viewBox="0 0 131 32" fill="none"
    xmlns="http://www.w3.org/2000/svg">
    <g clipPath="url(#clip0_1145_1216)">
        <path d="M17.049 0.0190353L0 11.0403L7.59215 15.9483L17.049 9.83491L26.5059 15.9483L34.0982 11.0403L17.049 0.0190353Z" fill="#816AFE" />
        <path d="M7.59205 15.9483L0 20.8562L17.049 31.8776L34.0982 20.8562L26.5061 15.9483L17.049 22.0618L7.59205 15.9483Z" fill="#48D3FE" />
        <path d="M41.9404 26.131H50.2771C54.6598 26.131 56.9941 23.8443 56.9941 20.7384C56.9941 17.8515 54.9266 16.108 52.7067 16.0032V15.8126C54.736 15.3552 56.2319 13.9166 56.2319 11.6205C56.2319 8.69553 54.0596 6.61852 49.753 6.61852H41.9404V26.131ZM46.0659 22.7583V17.5753H49.5244C51.5062 17.5753 52.7352 18.7186 52.7352 20.3287C52.7352 21.7959 51.7348 22.7583 49.4291 22.7583H46.0659ZM46.0659 14.7837V9.95317H49.2005C51.0298 9.95317 52.0684 10.8964 52.0684 12.3065C52.0684 13.85 50.8107 14.7837 49.1242 14.7837H46.0659Z" fill="#102440" />
        <path d="M58.2607 26.131H62.3196V11.4966H58.2607V26.131ZM60.2996 9.61017C61.5096 9.61017 62.5005 8.686 62.5005 7.55222C62.5005 6.42796 61.5096 5.50379 60.2996 5.50379C59.0992 5.50379 58.1083 6.42796 58.1083 7.55222C58.1083 8.686 59.0992 9.61017 60.2996 9.61017Z" fill="#102440" />
        <path d="M64.3054 26.131H68.3071V23.7872H68.4881C69.0502 25.0068 70.2792 26.3693 72.642 26.3693C75.9767 26.3693 78.5778 23.73 78.5778 18.8329C78.5778 13.8023 75.8625 11.3061 72.6516 11.3061C70.2031 11.3061 69.0311 12.7638 68.4881 13.9548H68.3642V6.61852H64.3054V26.131ZM68.2785 18.8138C68.2785 16.2033 69.3836 14.536 71.3559 14.536C73.3662 14.536 74.4332 16.2795 74.4332 18.8138C74.4332 21.3672 73.3472 23.1394 71.3559 23.1394C69.4028 23.1394 68.2785 21.4243 68.2785 18.8138Z" fill="#102440" />
        <path d="M80.0209 26.131H84.0224V23.7872H84.2035C84.7655 25.0068 85.9947 26.3693 88.3575 26.3693C91.6921 26.3693 94.2932 23.73 94.2932 18.8329C94.2932 13.8023 91.5778 11.3061 88.367 11.3061C85.9184 11.3061 84.7465 12.7638 84.2035 13.9548H84.0796V6.61852H80.0209V26.131ZM83.9939 18.8138C83.9939 16.2033 85.0991 14.536 87.0712 14.536C89.0816 14.536 90.1487 16.2795 90.1487 18.8138C90.1487 21.3672 89.0625 23.1394 87.0712 23.1394C85.1181 23.1394 83.9939 21.4243 83.9939 18.8138Z" fill="#102440" />
        <path d="M95.7361 26.131H99.7378V23.7872H99.9187C100.481 25.0068 101.71 26.3693 104.073 26.3693C107.407 26.3693 110.008 23.73 110.008 18.8329C110.008 13.8023 107.293 11.3061 104.082 11.3061C101.634 11.3061 100.462 12.7638 99.9187 13.9548H99.7949V6.61852H95.7361V26.131ZM99.7091 18.8138C99.7091 16.2033 100.814 14.536 102.787 14.536C104.797 14.536 105.864 16.2795 105.864 18.8138C105.864 21.3672 104.778 23.1394 102.787 23.1394C100.833 23.1394 99.7091 21.4243 99.7091 18.8138Z" fill="#102440" />
        <path d="M115.434 6.61852H111.375V26.131H115.434V6.61852Z" fill="#102440" />
        <path d="M124.013 26.4169C127.633 26.4169 130.073 24.6543 130.644 21.9389L126.89 21.6911C126.481 22.8059 125.433 23.3871 124.08 23.3871C122.05 23.3871 120.764 22.0437 120.764 19.8618V19.8523H130.73V18.7376C130.73 13.7642 127.719 11.3061 123.851 11.3061C119.545 11.3061 116.753 14.3645 116.753 18.8806C116.753 23.5204 119.506 26.4169 124.013 26.4169ZM120.764 17.337C120.85 15.6697 122.117 14.3359 123.918 14.3359C125.68 14.3359 126.9 15.5935 126.909 17.337H120.764Z" fill="#102440" />
    </g>
    <defs>
        <clipPath id="clip0_1145_1216">
            <rect width="130.795" height="32" fill="white" />
        </clipPath>
    </defs>
</svg>